<svg xmlns="http://www.w3.org/2000/svg" viewBox="0 0 512 512" id="discord">
  <path fill="#babed7" d="M409 295.91q-2.52-10-5-20.07a27.63 27.63 0 0 0 .82-15.25A264.33 264.33 0 0 0 384.09 202l-2.09-3c-1.61-6.49-3.08-13-4.9-19.45-2.91-10.22-6.88-20.33-12.86-28.89a120.21 120.21 0 0 0-19.5-22.31c-3-2.64-6.1-5.18-9.21-7.66a95.25 95.25 0 0 0-16.35-12.24 21.84 21.84 0 0 0-17.3-2.45 23.2 23.2 0 0 0-13.38 11.16c-2.74 5.64-4.12 12.48-2.26 18.73a26.47 26.47 0 0 0 7.65 12.4 81.71 81.71 0 0 0-25.89-.19c-11.63 1.58-23.2 3.58-34.79 5.45-4.51.73-9 1.42-13.5 2.48a64.82 64.82 0 0 0-7 2.1q1.86-1.83 3.79-3.56a18.36 18.36 0 0 0 4.63-7.82 19.61 19.61 0 0 0 1.93-9.37c-.27-2.15-.53-4.3-.8-6.46a18.84 18.84 0 0 0-4-8.26c-2.86-4-6.94-7.55-11.63-8.71a22.25 22.25 0 0 0-17.25 2.45c-17.73 10.51-32.4 25.76-44 43.57-11.2 17.16-17.89 37.38-21.26 58s-4.64 42-11.89 61.75c-1.77 4.83-3.73 9.58-5.42 14.45a89.84 89.84 0 0 0-4.3 20.38 52.59 52.59 0 0 0 13.64 40.56c8.56 9.28 19.88 15.44 30.2 22l10 6.42a146.74 146.74 0 0 0 21 13.46 15.74 15.74 0 0 0 8.32 2.88 15.66 15.66 0 0 0 8.93-.43 23.18 23.18 0 0 0 13.4-11.15c2.75-5.64 4.12-12.47 2.26-18.72-1.8-6.05-5.16-11.24-10.29-14.53l-21.27-13.61c-.7-.54-1.39-1.09-2.08-1.64a143.37 143.37 0 0 1-15.52-15.74l1.52.48a129.2 129.2 0 0 0 14.46 3.55 21.94 21.94 0 0 0 9.3 5.79 233.3 233.3 0 0 0 45.38 8.85 201.76 201.76 0 0 0 40.82-.09 15.83 15.83 0 0 0 8-1.76 288.73 288.73 0 0 0 42.32-3.48c-2.94 1.94-5.89 3.85-8.79 5.79q-14.07 9.39-28.29 18.52a25 25 0 0 0-10.29 14.52c-1.48 5.82-.81 13.57 2.26 18.73s7.67 9.75 13.38 11.17a22.42 22.42 0 0 0 17.25-2.45l39.08-22.75 19.54-11.38c5.61-3.26 11.4-6.3 16.61-10.29 7.33-5.62 13.95-11.8 18.64-20.25a44.61 44.61 0 0 0 5.29-26.33 26.83 26.83 0 0 0 1.42-16.76Zm-114.2-28.3a60.32 60.32 0 0 1-6.14-6.53c-.32-.51-.62-1-.91-1.54.1-.42.2-.84.28-1.28l3.4-19.86c1.49-.3 3-.54 4.46-.77a58.16 58.16 0 0 1 10.79-.44c1 .25 2 .54 3 .88.43.26.86.52 1.29.8l.1.11c.16.3.31.61.46.91 2.43 5 8.29 9.91 13.38 11.17l5.4.79a21.76 21.76 0 0 0-5.51 10.35 115.61 115.61 0 0 1-2.94 12.15l-.06.12a23 23 0 0 0-5.65 2.82c-.65 0-1.29 0-1.93-.09a55 55 0 0 1-8.54-2.62 74.14 74.14 0 0 1-10.88-6.97Zm-100.37 14.5a24.7 24.7 0 0 0-2.94-13.11c-.34-.61-.66-1.23-1-1.85-.35-1.18-.64-2.37-.88-3.57a54.39 54.39 0 0 1 0-6 64.86 64.86 0 0 1 2.33-8.94 108.78 108.78 0 0 1 6.4-12.26c.43-.14.87-.27 1.31-.39h.92c.75.21 1.5.45 2.24.71a69.94 69.94 0 0 1 9.4 6.28 68.46 68.46 0 0 1 7.48 7.92 52.65 52.65 0 0 1 3 5.47c.41 1.35.76 2.73 1.05 4.12.05 1.24.06 2.48 0 3.72-.17.79-.37 1.57-.58 2.35-.22.42-.44.83-.67 1.24a27.3 27.3 0 0 0-5.32 10.2q-.39 3.11-.77 6.21c-7.3-.59-14.67-1.21-21.97-2.1Z"></path>
  <path fill="#231f20" d="m217.85 118.11-37.89 19-19.28 9.69-9.41 4.74a27.28 27.28 0 0 0-7.56 5.14c-4.65 4.77-6 12.39-7.89 18.75L129.47 197q-6.41 21.75-12.8 43.5c-4.06 13.78-8.1 27.58-11.37 41.61-3.17 13.57-5.89 27.6-6.58 41.61-.59 12.09 1.26 25.34 9.86 33.94 4.64 4.64 10.43 7.76 16 10.88q8.64 4.86 17.57 9.06c6.18 2.9 12.43 5.61 18.77 8.07s12.62 4.64 19.26 5.56c11.35 1.57 23.71-2.08 30.21-13a22.93 22.93 0 0 0 2.85-7.84c.3-1.85-.17-4.26-1.93-5.15a118.78 118.78 0 0 1-49.52-47.39l-5.79 6.27a173.43 173.43 0 0 0 74.76 27 175.88 175.88 0 0 0 77.47-8.16 172 172 0 0 0 40.53-20.13l-4.24-7.87c-21.91 17.29-43.92 34.62-67.8 48.62a4.51 4.51 0 0 0-2.08 3.93 160 160 0 0 1 .61 32.74 4.31 4.31 0 0 0 5.32 4.39 496.22 496.22 0 0 0 79.68-32.55q9.68-4.95 19.14-10.35a180.36 180.36 0 0 0 16.87-10.32c5.11-3.69 9.91-8.17 13-14 3.44-6.63 4.25-14.35 4.12-21.84a379.85 379.85 0 0 0-3.71-42.88 320.86 320.86 0 0 0-8.09-41.36c-7.29-27.06-19-53.89-36.93-74.58a93.27 93.27 0 0 0-32.4-23.92c-12-5.43-24.81-8.53-37.62-10.85q-4.67-.84-9.34-1.57a4.18 4.18 0 0 0-4.95 2.64 4.81 4.81 0 0 0 1.72 5.68l51.15 37.61 3.24-8.32a164.6 164.6 0 0 0-62-12.73 169.55 169.55 0 0 0-94.81 27.7l5.75 6.24a262.07 262.07 0 0 1 37.3-47.33c4-4-2-10.42-5.93-6.44a271.37 271.37 0 0 0-38.62 49.17c-2.38 3.85 2.26 8.52 5.74 6.23a162.23 162.23 0 0 1 56.61-23.3 158.45 158.45 0 0 1 93.71 9.21c1.93.81 4.25-.72 5-2.63a4.83 4.83 0 0 0-1.72-5.69l-51.15-37.61-3.24 8.32c24 3.81 49.66 9.05 68.61 26.69 9.61 8.93 17.28 20.06 23.72 31.81a199.63 199.63 0 0 1 15.25 36.29c8.05 25.71 11.89 52.74 13.72 79.74.46 6.73 1.2 13.77.24 20.48a26.17 26.17 0 0 1-7.87 15.52c-4.29 4.18-9.51 7.15-14.54 10.13q-8.94 5.28-18.06 10.17a484.82 484.82 0 0 1-75.83 32.68q-4.95 1.65-9.93 3.19l5.32 4.39a160.66 160.66 0 0 0-.61-32.74l-2.11 3.89c23.88-14 45.88-31.32 67.8-48.61a4.93 4.93 0 0 0 1.5-6.24 4.06 4.06 0 0 0-5.74-1.63 164.72 164.72 0 0 1-70.49 26.78 170.27 170.27 0 0 1-75-6.8 162.75 162.75 0 0 1-38.75-18.66c-3.56-2.33-8 2.35-5.74 6.24 12.53 21.94 30.93 39.81 52.53 50.66l-1.98-5.15c-1.68 10.15-11.58 14.82-20.49 14.56-6-.16-11.88-2.07-17.55-4.14-5.82-2.13-11.57-4.5-17.24-7s-11-5.22-16.4-8.1-11-5.81-16-9.5c-8.57-6.32-10.65-16.84-10.43-27.48.27-12.89 2.81-25.85 5.59-38.34 3-13.31 6.69-26.41 10.51-39.46q6-20.48 12.05-40.94l6-20.41c1.91-6.49 3.47-13.29 5.85-19.59 2.15-5.72 7.31-7.52 12.13-9.95l17.93-9 35.86-18 9.13-4.6c2.06-1 2.57-4.25 1.51-6.23a4.11 4.11 0 0 0-5.75-1.63Z"></path>
  <path fill="#231f20" d="M194 232.7c-11.8 4.81-17.54 18.68-15 31.73s13.4 25.95 26 27.65c11.6 1.56 22.8-7.59 26.28-19.35 3.68-12.45-1.16-27-10.2-35.24-5.61-5.13-12.74-8.39-20.17-7.2a19.13 19.13 0 0 0-15 13 4.65 4.65 0 0 0 2.94 5.6c2.35.71 4.36-.86 5.16-3.18 1.24-3.59 5-6 8.56-6.51 4-.53 8.4 1.42 11.72 4.09 6.62 5.31 10.86 14.95 9.58 23.84-1.21 8.36-8.09 15.74-15.76 16.06-8.68.37-16.78-8.33-19.86-16.78a22.58 22.58 0 0 1-.42-15.12c1.44-4.22 4.52-8.17 8.4-9.75a4.77 4.77 0 0 0 2.94-5.61c-.56-2.21-3-4-5.17-3.18zm110.28-2.2c-5.51-.54-11 2.55-14.39 7.17-3.92 5.33-5.24 12.29-4.61 19C286.34 268.08 292 281 303 284.28c11.65 3.42 23.57-6.36 29.14-16.82a21.24 21.24 0 0 0 1.11-18.29c-2.13-5.23-6.13-9.24-10.23-12.67-5.15-4.3-11.14-9.15-17.88-9.39-6.93-.24-12.36 5-16.85 10.09-3.74 4.24 2.19 10.69 5.94 6.45 2.63-3 5.87-7 9.93-7.45s8 3 11.05 5.34c5.49 4.1 13 10.37 10.95 18.18-1.14 4.38-4.43 8.13-7.52 11-2.82 2.66-6.5 5-10.32 5.11-7.55.24-12.2-7.81-13.92-15.08-1.13-4.8-1.54-10.56.63-15.11 1.89-3.95 5.3-6.45 9.26-6.06 2.27.23 4.2-2.25 4.2-4.55a4.49 4.49 0 0 0-4.2-4.56z"></path>
</svg>
