<svg xmlns="http://www.w3.org/2000/svg" width="163.714" height="106.424" viewBox="0 0 163.714 106.424">
  <g>
    <path d="M153.97,57.7c0-.738,0-1.484-.011-2.23,0-.324,0-.653-.012-.977,0-.433-.012-.867-.02-1.3,0-.29-.011-.579-.019-.868,0-.23-.012-.461-.016-.691q-.017-.851-.047-1.7c-.007-.438-.023-.871-.043-1.3s-.027-.871-.046-1.3c0-.218-.012-.433-.028-.652-.019-.609-.047-1.223-.078-1.828,0-.035,0-.067,0-.1q-.04-.978-.094-1.953c-.011-.215-.023-.43-.035-.64s-.019-.426-.035-.641-.019-.426-.035-.637-.023-.426-.035-.637c-.012-.23-.024-.46-.039-.691-.059-1.035-.125-2.059-.192-3.066-.027-.411-.054-.821-.082-1.227s-.054-.812-.086-1.211-.054-.8-.086-1.195c-.011-.2-.027-.4-.042-.594-.036-.492-.071-.976-.11-1.457-.019-.242-.035-.48-.055-.719s-.035-.476-.054-.711c-.028-.379-.059-.754-.09-1.121-.016-.187-.027-.367-.043-.55-.023-.309-.051-.618-.078-.918q-.042-.516-.082-1.02c-.063-.773-.129-1.523-.192-2.25-.015-.168-.027-.332-.043-.492s-.027-.328-.043-.488-.027-.321-.043-.481c-.07-.793-.136-1.555-.2-2.277-.2-2.262-.375-4.184-.5-5.668-4.82.2-9.535,1.043-14.32,1.468a69.667,69.667,0,0,1-7.18.2H129.8q-.662-.012-1.324-.035l-.668-.024c-.164,0-.332-.012-.5-.019-.586-.024-1.168-.051-1.75-.086-.554-.028-1.109-.059-1.664-.1-.281-.016-.562-.035-.844-.055-2.129-.14-4.261-.308-6.39-.457-.375-.027-.75-.054-1.129-.078-.86-.058-1.715-.109-2.57-.156-.415-.024-.825-.043-1.235-.063-.953-.031-1.906-.054-2.859-.074l-1.477-.023c-.879-.016-1.761-.028-2.64-.035h-.227c-2.695-.024-5.391-.02-8.09-.008h-.012c-.953,0-1.91.008-2.863.015-.324,0-.648,0-.972,0-1.278.008-2.559.016-3.836.02-1.258.008-2.52.012-3.778.012q-1.516,0-3.027-.008l-1.484-.012c-.5,0-.993-.008-1.489-.016-.414,0-.828-.007-1.242-.015-.574-.012-1.148-.02-1.726-.035q-.734-.012-1.465-.036c-.5-.011-1-.027-1.5-.042s-.985-.032-1.481-.051-.988-.039-1.484-.063q-1.478-.064-2.957-.152-2.714-.159-5.414-.4c-.157-.012-.317-.028-.473-.043h-.023c-.645-.059-1.293-.122-1.938-.192-7.2-.3-14.394-.133-21.582.266h-.035c-.891.047-1.781.1-2.676.156s-1.785.113-2.68.176q-1.306.087-2.617.187-1.353.1-2.707.207c-.9.071-1.8.141-2.7.215q-2.226.181-4.445.371-1.788.147-3.574.3c-.454.039-.9.078-1.352.113-.258.024-.516.043-.773.067a4.676,4.676,0,0,0-.555.609,5.484,5.484,0,0,0-.887,1.918v0c-.293,1.1-.375,2.277-.644,3.383-.016.066-.035.137-.055.2-.02.082-.043.16-.066.242s-.059.184-.09.274-.071.2-.114.3c-.027.075-.062.149-.1.223l-.059.125c-.035.074-.074.149-.117.223-.5,13.519.305,27.031.328,40.551-.015,1.14-.035,2.285-.062,3.429s-.063,2.289-.1,3.43q-.024.855-.059,1.715c-.058,1.715-.129,3.429-.191,5.148-.023.571-.047,1.141-.066,1.715q-.1,2.573-.176,5.145c-.016.57-.031,1.14-.047,1.714-.016.657-.031,1.313-.043,1.973l-.023,1.371c-.008.6-.012,1.2-.016,1.805q-.012,1.952.016,3.91c1.015.062,2.035.062,3.05.027h0c.207,0,.414-.011.617-.023s.414-.02.621-.031c.325-.016.649-.035.977-.059.133-.008.27-.016.406-.027q.78-.052,1.559-.11c.262-.019.519-.039.781-.054,9.2-.395,18.266-1.926,27.414-2.774,13.278-1.3,26.567-.523,39.817.547,3.4.231,6.785.309,10.168.274.355,0,.711-.008,1.062-.016.316,0,.633-.008.945-.02.414-.007.829-.019,1.243-.031.289-.008.578-.019.867-.031q.7-.018,1.394-.055c.43-.015.86-.039,1.289-.062a.094.094,0,0,0,.047,0c.426-.02.848-.043,1.27-.071,2.758-.156,5.511-.371,8.265-.625.5-.043.989-.089,1.485-.14q1.682-.159,3.355-.34.551-.053,1.1-.117c.5-.051.992-.106,1.488-.16.844-.094,1.688-.188,2.527-.286,4-.457,8-.941,12-1.4.508-.059,1.012-.113,1.516-.172q2.373-.264,4.75-.508c.344-.035.688-.07,1.031-.1l.453-.047c.325-.031.645-.063.969-.09,1.52-.148,3.035-.281,4.555-.4a7.7,7.7,0,0,0,1.3-1.422,12.414,12.414,0,0,0,1.125-1.946v0c.011-.031.027-.058.039-.089.066-.141.129-.282.191-.43s.117-.273.172-.414.125-.309.184-.469a.734.734,0,0,0,.027-.074c.039-.094.074-.192.105-.289.079-.219.157-.438.231-.668.055-.176.113-.356.168-.535.015-.051.031-.106.047-.157.05-.167.1-.339.144-.511.016-.051.031-.1.043-.153.051-.175.1-.355.141-.535q.135-.521.258-1.078c.039-.168.078-.336.113-.508,0-.008,0-.019.008-.027.039-.2.082-.391.121-.59.051-.254.1-.512.144-.773.043-.231.086-.465.125-.7.008-.043.012-.082.024-.125.043-.258.082-.516.121-.782.051-.328.1-.66.148-1,.032-.222.063-.449.09-.679.035-.286.07-.575.106-.864s.07-.6.1-.9c0-.039.008-.082.016-.121.027-.25.055-.5.074-.758s.051-.484.07-.726c.008-.059.012-.122.016-.184.055-.613.1-1.234.145-1.863s.086-1.27.117-1.914c.015-.325.035-.649.047-.977s.031-.652.043-.984c.027-.637.047-1.282.062-1.93.012-.359.024-.719.027-1.082.008-.336.016-.676.02-1.02s.012-.683.012-1.027C153.97,59.1,153.97,58.4,153.97,57.7ZM160.326,55c.609,12.188,11.4,50.586-9.027,49.387-30.207-.266-60.309,2.527-90.516,1.961-10.973-.328-21.984-.715-32.852-2.321-11.566-1.218-24.421,1.332-24.015-14.8-.438-7.008-.828-14.02-1.094-21.035v0c-.469-12.114-.578-24.235.008-36.36.215-4.457.531-8.914,1-13.355-1.524-2.922-.422-6.328,1.258-8.91A1.671,1.671,0,0,1,6.361,8.043C7.248,6.8,8.552,5.926,10.013,6.766c3.008-.063,6.032-.059,9.036-.211a354.017,354.017,0,0,0,45.57-2.942h.008q.65-.087,1.3-.179C78.338,2.023,90.74.137,103.252,0,116.92.184,130.4,2.984,144.088,3.223c11.906-.465,15.695,7.132,14.082,17.918C158.334,32.457,158.615,43.793,160.326,55Z" fill="#3781bc"/>
    <path d="M153.068,8.691c2.012,2.141,4.5,5.95,2.719,8.829a29.033,29.033,0,0,1-3.934,2.242,15.28,15.28,0,0,0-1.574.957c-7.812,5.176-15.09,11.129-23.035,16.133-.442.316-.883.625-1.328.933q-.827.569-1.656,1.125-.756.5-1.516,1c-.484.317-.973.629-1.461.942-2.691,1.711-5.426,3.355-8.141,5.027q-1,.609-1.984,1.227c-.016.011-.031.019-.047.031-.445.277-.891.555-1.332.84q-1.26.791-2.5,1.605c-.055.039-.109.074-.164.11-.207.136-.418.273-.621.414s-.414.277-.621.418c-.328.222-.66.445-.985.675-.285.192-.566.391-.843.586-.383.27-.762.543-1.141.817-5.355,4.09-10.141,8.89-15.32,13.2-4.551,4.465-8.547,4.242-13.614.656C68.3,62.438,62.513,58.543,56.834,54.516c-3.145-2.235-6.258-4.508-9.3-6.871q-.78-.6-1.555-1.219c-.515-.406-1.031-.821-1.543-1.235-.433-.347-.867-.7-1.3-1.062-.171-.141-.343-.281-.515-.426q-.609-.51-1.211-1.019l-.02-.02-.074-.062c-.453-.387-.9-.774-1.344-1.161-.027-.023-.05-.043-.074-.066q-.691-.6-1.371-1.219c-.07-.058-.137-.121-.207-.187a.131.131,0,0,0-.023-.02c-.383-.347-.766-.7-1.145-1.051-.039-.039-.082-.074-.121-.113a1.563,1.563,0,0,1-.121-.113c-.07-.067-.145-.133-.215-.2-.4-.368-.785-.739-1.176-1.114-.312-.332-.629-.656-.945-.98-.246-.25-.492-.5-.738-.742-.286-.282-.571-.559-.856-.836s-.57-.547-.855-.817-.578-.543-.867-.8c-.34-.317-.684-.625-1.024-.934s-.687-.617-1.031-.922c-.215-.2-.434-.383-.649-.574-.265-.234-.527-.465-.789-.691q-.89-.78-1.781-1.547L24.26,27.02l-1.254-1.1c-.211-.184-.422-.367-.629-.555l-.727-.644C19.6,22.879,17.6,20.973,15.677,18.9a23.7,23.7,0,0,1-2.1-2.692c-.3-.43-.594-.879-.879-1.336a20.24,20.24,0,0,1-1.082-1.976c-.738-1.59-.895-2.852.441-2.8,1.293.422,1.536,1.867,2.2,2.863.171.235.347.469.527.7.465.61.957,1.2,1.469,1.766.179.207.363.406.55.606s.356.382.539.57c.075.078.149.156.227.23.137.141.273.282.414.418.18.176.359.356.539.528,3.313,3.187,7.074,5.961,10.445,9.054,3.09,2.625,6.059,5.4,9.313,7.817,1.625,1.164,3.293,2.25,5,3.277.008.008.016.012.02.016q.691.416,1.382.82c.356.207.707.41,1.063.609,5.152,2.934,10.523,5.493,15.711,8.356.359.2.715.394,1.066.594q.669.375,1.332.761c2.278,1.317,4.492,2.707,6.668,4.188a63.758,63.758,0,0,0,5.4,3.562c1,.184,1.957-.433,2.863-.793,8.539-4.472,15.406-11.293,22.375-17.816,4.445-4.152,8.977-8.246,13.715-12.059.594-.476,1.187-.949,1.789-1.418.3-.234.6-.468.9-.7.6-.461,1.207-.918,1.821-1.371.324-.246.652-.484.98-.723.559-.406,1.125-.808,1.691-1.2.344-.246.692-.484,1.039-.718.317-.215.629-.43.946-.641s.633-.422.953-.629c.289-.191.582-.379.875-.566a1.076,1.076,0,0,1,.144-.094c.3-.192.6-.379.9-.567.644-.4,1.3-.8,1.953-1.187l.984-.574h0c.535-.313,1.078-.617,1.621-.914,4.274-2.477,8.7-4.621,13.168-6.727C147.943,6.434,150.127,5.621,153.068,8.691Z" fill="#3781bc"/>
    <path d="M72.881,60.121c.113,2.227-1.836,3.051-3.731,2.281a98.839,98.839,0,0,1-12.234-8.019c-3.063-2.3-6.047-4.68-9.086-7.039-1.246-.969-2.5-1.934-3.778-2.883C37.7,39.535,32.955,32.852,26.5,28.055c-1.153-.891-2.891-2.035-4.848-3.336-.062-.043-.129-.086-.191-.129-.219-.145-.438-.289-.66-.438q-.727-.486-1.473-1L18.8,22.8c-.089-.059-.179-.121-.269-.188-.234-.16-.469-.324-.7-.488-.649-.457-1.293-.922-1.926-1.394-.191-.145-.379-.286-.566-.43s-.371-.285-.555-.43c-.734-.574-1.438-1.156-2.094-1.742v0q-.516-.457-.984-.926c-1.844-1.8-3.117-3.609-3.242-5.269.355-1.481,1.816-.3,3.152.965.594.562,1.164,1.14,1.6,1.507a2.236,2.236,0,0,0,.519.364q.58.391,1.168.765c1.191.77,2.406,1.5,3.621,2.239.606.367,1.215.734,1.82,1.1.262.156.52.317.778.473.4.246.8.5,1.2.746.168.105.336.215.5.32.273.176.547.352.816.532.188.121.375.246.559.371.246.16.488.328.73.5.3.207.6.418.895.632.336.243.668.489,1,.743q.363.274.715.554c.226.18.449.356.668.539.793.645,1.566,1.317,2.328,2,.172.153.344.309.512.465,1.894,1.734,3.722,3.551,5.574,5.336.308.3.617.594.93.883,1.339,1.273,2.7,2.512,4.117,3.676.16.132.32.261.48.39.129.106.262.211.395.313q.345.274.7.539a.4.4,0,0,0,.043.031c.008.008.016.012.02.016a35.265,35.265,0,0,0,5.16,3.269c6.957,4.328,14.476,7.871,21.074,12.684C71.15,55.609,72.7,57.684,72.881,60.121Z" fill="#3781bc"/>
    <path d="M50.873,45.02c3.551-.036,7.992,6.035,6.043,9.363a1.011,1.011,0,0,1-.082.133,2.553,2.553,0,0,1-.27.359.815.815,0,0,1-.1.1.189.189,0,0,1-.047.051c-.035.035-.071.071-.11.106a1.823,1.823,0,0,1-.179.16l-.106.082c-.047.039-.1.074-.148.109a193.388,193.388,0,0,1-26.141,24.18,95.926,95.926,0,0,0-14.3,13.594,7.257,7.257,0,0,0-1,1.215c-.035.05-.074.1-.109.16-.059.082-.114.164-.176.25-.031.047-.066.093-.1.14a22.639,22.639,0,0,1-1.519,2.051c-.883,1-1.789,1.594-2.59.793-1.5-1.277-1.3-2.855-.547-4.363a15.8,15.8,0,0,1,1.59-2.418c.238-.313.469-.606.68-.879,4.062-5.176,8.648-9.906,12.843-14.981C30.474,68.18,35.705,60.539,41.9,53.684c.242-.278.484-.555.727-.825l.711-.793,0,0c.239-.265.477-.523.711-.777s.465-.5.7-.754.472-.5.707-.746c.465-.492.926-.969,1.386-1.441.231-.235.457-.469.688-.7.1-.1.2-.2.3-.3.5-.508,1.012-1.008,1.515-1.5A2.145,2.145,0,0,1,50.873,45.02Z" fill="#3781bc"/>
    <path d="M156.927,96.066c.45,1.653-.335,3.8-2.371,3.442-2.632-.352-4.214-3.039-5.918-4.746-1.976-2.125-4.039-4.157-6.125-6.172-1.64-1.586-3.3-3.16-4.933-4.75-.508-.5-1.02-1-1.524-1.5-6.718-6.778-12.472-14.434-18.925-21.461-1.9-2.086-3.86-4.121-5.754-6.2-.211-.231-.422-.465-.629-.7q-.353-.386-.688-.773c-.394-.445-.785-.891-1.168-1.344-.2-.238-.406-.476-.6-.718-.137-.168-.278-.336-.414-.5-.262-.317-.516-.633-.762-.953-.586-.743-1.152-1.5-1.7-2.278a4.775,4.775,0,0,1-.59-1.332c-.422-1.711.934-2.359,2.762-.316.718.75,1.453,1.484,2.191,2.211,2.934,2.886,5.984,5.66,8.781,8.683,6.043,6.391,11.36,13.485,17.879,19.414,4.153,3.508,8.7,7.028,12.9,10.61,1.25,1.062,2.464,2.129,3.629,3.2a15.072,15.072,0,0,1,2.789,3.273A9.045,9.045,0,0,1,156.927,96.066Z" fill="#3781bc"/>
    <path d="M155.756,93.16c.175,2.309-1.016,4.215-4.157,2.789a10.064,10.064,0,0,1-3.226-2.679c-1.613-1.606-3.258-3.184-4.891-4.77-2.18-2.113-4.344-4.238-6.41-6.461-3.371-3.484-6.98-6.738-10.293-10.281-4.387-4.512-8.043-9.633-12.129-14.4-2.156-2.293-4.414-4.492-6.547-6.816-.265-.316-.547-.637-.824-.961a14.486,14.486,0,0,1-2.453-3.5l0-.008a6.072,6.072,0,0,1-.469-1.675c.184-2.989,3.449-.079,4.446.886q1.165.915,2.312,1.852c.391.316.781.637,1.172.957s.777.64,1.164.961.77.648,1.156.972c.77.649,1.535,1.3,2.293,1.965.383.328.762.66,1.141.992s.754.665,1.129,1c.234.2.465.411.7.618.32.285.637.57.953.859q1.893,1.706,3.75,3.445c.27.25.539.5.809.758q1.933,1.817,3.836,3.668c.386.371.769.742,1.148,1.117,5.356,5.231,10.567,10.614,15.738,16.008.536.586,1.082,1.141,1.633,1.676.16.156.324.312.485.465.757.73,1.515,1.429,2.25,2.136v0a20.677,20.677,0,0,1,4.582,5.879,6.959,6.959,0,0,1,.711,2.543Z" fill="#3781bc"/>
    <path d="M90.877,7.078C88.5,9.59,84.943,8.9,81.865,9.523c-1.027.239-2.082.336-3.113.547-4.328.778-8.434,2.434-12.77,3.149q-2.361.322-4.746.508h-.023c-.657.054-1.313.1-1.973.14-.332.024-.66.043-.992.059l-.985.047h-.007c-.661.031-1.321.054-1.985.074s-1.32.035-1.98.047c-1.422.051-2.848.07-4.281.07-.454,0-.9,0-1.356-.008q-.428,0-.867-.011c-.36,0-.719-.012-1.082-.02h-.1c-.742-.02-1.484-.039-2.226-.066-.4-.012-.8-.028-1.207-.043-.735-.032-1.469-.063-2.207-.1-.758-.035-1.512-.078-2.27-.117h-.035c-2.254-.125-4.5-.266-6.727-.4-3.4.157-11.769-1.156-16.144.25a5.545,5.545,0,0,0-1.57.75,3.328,3.328,0,0,0-.52.469,2.656,2.656,0,0,0-.312.422,13.485,13.485,0,0,0-.68,1.906c-.9,3.27-.692,6.817-.988,10.18-.176,8,.3,16.039-.883,23.98C7.568,65.1,5.81,79.262,9.263,92.934c.039.191.086.386.141.574a4.749,4.749,0,0,0,2.441,3.222c.227.122.461.235.7.348a5.171,5.171,0,0,1,2.051,1.477c.886,1.195.214,2.179-1.3,1.543C2.724,96.875,4.193,79.422,3.037,70.484c-.067-.765-.141-1.531-.215-2.3v0C2.068,60.516.994,52.961.72,45.27.623,32.9-2.3,17.551,4.369,6.5,8.424,2.27,16.549,4.23,21.955,3.559a269.52,269.52,0,0,1,35.472-.45c2.387.278,4.79.418,7.192.5h.008c4.445.16,8.894.125,13.281.4C82.189,5.188,86.842,5.137,90.877,7.078Z" fill="#3781bc"/>
    <path d="M142.513,88.59l-.453.047c-.343.031-.687.066-1.031.1q-2.373.24-4.75.508c-.5.055-1.008.113-1.516.172-4,.457-8,.941-12,1.4-.843.1-1.687.192-2.527.286-.5.054-.992.109-1.488.16q-.551.065-1.1.117-1.676.181-3.355.34c-.5.051-.992.1-1.485.14-2.754.254-5.507.469-8.265.625-.422.028-.848.051-1.27.071a.094.094,0,0,1-.047,0c-.429.023-.859.047-1.289.062q-.7.036-1.394.055c-.289.012-.578.023-.867.031-.414.012-.829.024-1.243.031-.312.012-.629.016-.945.02-.355.008-.707.012-1.062.016-3.383.035-6.77-.043-10.168-.274-13.25-1.07-26.539-1.851-39.817-.547-9.148.848-18.219,2.379-27.414,2.774-.262.015-.519.035-.781.054-.52.035-1.039.075-1.559.11-.136.011-.273.019-.406.027-.324.024-.648.043-.977.059-.207.011-.414.023-.621.031l-.617.023h0c.016-.019.028-.043.043-.062s.039-.055.055-.078c.062-.086.117-.168.176-.25.039-.055.074-.11.109-.16a7.257,7.257,0,0,1,1-1.215,95.926,95.926,0,0,1,14.3-13.594,193.388,193.388,0,0,0,26.141-24.18c.05-.035.1-.07.148-.109l.106-.082a1.823,1.823,0,0,0,.179-.16c.039-.032.075-.071.11-.106a.189.189,0,0,0,.047-.051c.035-.035.066-.07.1-.1a2.553,2.553,0,0,0,.27-.359C62.513,58.543,68.3,62.438,73.97,66.457c5.067,3.586,9.063,3.809,13.614-.656,5.179-4.313,9.965-9.113,15.32-13.2.367-.266.738-.532,1.109-.793.289-.207.582-.41.875-.61.735-.511,1.477-1.011,2.227-1.507.246.32.5.636.762.953.136.168.277.336.414.5.2.242.4.48.6.718.383.453.774.9,1.168,1.344q.334.387.688.773c.207.231.414.465.629.7,1.894,2.082,3.851,4.117,5.754,6.2,6.453,7.027,12.207,14.683,18.925,21.461.5.5,1.016,1,1.524,1.5C139.217,85.43,140.873,87,142.513,88.59Z" fill="#fff" fill-opacity="0"/>
    <path d="M129.853,15.762q-.5.281-.984.574c-.656.391-1.309.785-1.953,1.187-.3.188-.6.375-.9.567a1.076,1.076,0,0,0-.144.094c-.293.187-.586.375-.875.566-.32.207-.637.418-.953.629s-.629.426-.946.641c-.347.234-.695.472-1.039.718-.566.395-1.132.8-1.691,1.2-.328.239-.656.477-.98.723-.614.453-1.219.91-1.821,1.371-.3.231-.6.465-.9.7q-.9.7-1.789,1.418c-4.738,3.813-9.27,7.907-13.715,12.059-6.969,6.523-13.836,13.344-22.375,17.816-.906.36-1.867.977-2.863.793a63.758,63.758,0,0,1-5.4-3.562c-2.176-1.481-4.39-2.871-6.668-4.188q-.662-.387-1.332-.761c-.355-.2-.707-.395-1.066-.594-5.188-2.863-10.559-5.422-15.711-8.356q-.534-.3-1.063-.609-.691-.405-1.382-.82s-.012-.008-.02-.016a.4.4,0,0,1-.043-.031q-.351-.264-.7-.539c-.133-.1-.266-.207-.395-.313-.164-.129-.32-.258-.48-.39-1.418-1.164-2.778-2.4-4.117-3.676-.313-.293-.622-.59-.93-.883-1.852-1.785-3.68-3.6-5.574-5.336-.172-.156-.34-.312-.512-.465-.762-.687-1.535-1.359-2.328-2q-.328-.274-.668-.539-.352-.281-.715-.554c-.328-.254-.66-.5-1-.743-.3-.214-.594-.429-.895-.632-.242-.172-.484-.34-.73-.5-.184-.125-.371-.25-.559-.371-.269-.18-.543-.356-.816-.532-.168-.109-.336-.215-.5-.32-.4-.25-.8-.5-1.2-.746-.258-.16-.52-.317-.778-.473-.605-.367-1.214-.734-1.82-1.1-.18-.172-.359-.352-.539-.528-.141-.136-.277-.277-.414-.418-.078-.074-.152-.152-.227-.23-.183-.188-.363-.379-.539-.57s-.371-.4-.55-.606q1.786-.153,3.574-.3,2.22-.187,4.445-.371c.9-.074,1.8-.144,2.7-.215s1.8-.14,2.707-.207q1.313-.1,2.617-.187c.9-.063,1.79-.121,2.68-.176s1.785-.109,2.676-.156h.035c.754.043,1.512.082,2.27.117.734.035,1.468.07,2.207.1.4.015.8.031,1.207.043q1.113.041,2.226.066h.1c.359.008.722.016,1.082.02q.44.011.867.011c.453,0,.906.008,1.356.008,1.433,0,2.859-.019,4.281-.07q.99-.018,1.98-.047c.66-.02,1.324-.043,1.985-.074h.007c.329-.012.657-.032.985-.047s.66-.035.992-.059c.66-.039,1.316-.086,1.973-.14h.023c.156.015.316.031.473.043,1.8.164,3.609.3,5.414.4q1.482.087,2.957.152c.5.024.992.043,1.484.063s.988.035,1.481.051,1,.031,1.5.042.976.028,1.465.036c.578.015,1.152.023,1.726.035.414.008.828.011,1.242.015.5.008.992.012,1.489.016l1.484.012q1.512.006,3.027.008c1.258,0,2.52,0,3.778-.012q1.922-.006,3.836-.02c.324,0,.648,0,.972,0,.953-.007,1.91-.011,2.863-.015h.012c2.7-.012,5.4-.016,8.09.008h.227c.882.007,1.757.019,2.64.035l1.477.023c.953.02,1.906.047,2.859.074.41.02.82.039,1.235.063.855.047,1.71.1,2.57.156.379.024.754.051,1.129.078,2.129.149,4.261.317,6.39.457.282.02.563.039.844.055.555.039,1.11.07,1.664.1.582.035,1.168.062,1.75.086.164.007.332.015.5.019.223.012.446.016.668.024q.663.023,1.324.035Z" fill="#fff" fill-opacity="0"/>
    <path d="M47.533,47.645c-.231.23-.457.464-.688.7-.46.472-.921.949-1.386,1.441-.235.246-.473.5-.707.746s-.465.5-.7.754-.472.512-.711.777l0,0-.711.793c-.243.27-.485.547-.727.825-6.2,6.855-11.43,14.5-17.387,21.546-4.195,5.075-8.781,9.8-12.843,14.981-.211.273-.442.566-.68.879,0-.6.008-1.2.016-1.805l.023-1.371c.012-.66.027-1.316.043-1.973.016-.574.031-1.144.047-1.714s.035-1.141.054-1.715.04-1.145.059-1.715.039-1.145.063-1.715.043-1.144.066-1.715c.062-1.719.133-3.433.191-5.148q.036-.861.059-1.715.059-1.712.1-3.43c.027-1.144.047-2.289.062-3.429-.023-13.52-.832-27.032-.328-40.551.043-.074.082-.149.117-.223.02-.043.043-.082.059-.125.035-.074.07-.148.1-.223.043-.1.079-.2.114-.3s.062-.184.09-.274.046-.16.066-.242c.02-.066.039-.137.055-.2.269-1.106.351-2.285.644-3.383.656.586,1.36,1.168,2.094,1.742.184.145.367.289.555.43s.375.289.566.43c.633.472,1.277.937,1.926,1.394.234.164.469.328.7.488.09.067.18.129.269.188l.524.359q.744.51,1.473,1c.222.149.441.293.66.438.062.043.129.086.191.129l.727.644c.207.188.418.375.629.555l1.254,1.1c.574.5,1.152,1,1.726,1.492q.891.767,1.781,1.547c.266.23.528.461.789.691.215.191.434.379.649.574.344.3.687.61,1.031.922s.684.617,1.024.934c.289.265.578.535.867.8s.57.543.855.817.57.554.856.836c.246.246.492.492.738.742.316.324.633.648.945.98.391.375.781.746,1.176,1.114.07.066.145.132.215.2a1.563,1.563,0,0,0,.121.113c.039.039.082.074.121.113.379.356.762.7,1.145,1.051a.131.131,0,0,1,.023.02c.07.066.137.129.207.187q.679.615,1.371,1.219c.024.023.047.043.074.066.235.207.469.411.707.614.211.183.422.367.637.547l.074.062.02.02q.6.509,1.211,1.019c.172.145.344.285.515.426.43.359.864.715,1.3,1.062.512.418,1.028.829,1.543,1.235S47.013,47.242,47.533,47.645Z" fill="#fff" fill-opacity="0"/>
    <path d="M153.959,55.465c.008.746.011,1.492.011,2.23,0,.7,0,1.4-.011,2.094,0,.344-.008.688-.012,1.027s-.012.684-.02,1.02c0,.363-.015.723-.027,1.082-.015.648-.035,1.293-.062,1.93-.012.332-.028.66-.043.984s-.032.652-.047.977c-.035.644-.074,1.285-.117,1.914s-.094,1.25-.145,1.863c0,.062-.008.125-.016.184-.019.242-.043.484-.07.726-.023.258-.047.508-.074.758-.008.039-.012.082-.016.121-.027.305-.062.605-.1.9s-.071.578-.106.864c-.027.23-.058.457-.09.679-.047.34-.1.672-.148,1-.039.266-.082.524-.121.782-.012.043-.016.082-.024.125-.039.238-.082.472-.125.7-.047.261-.093.519-.144.773-.039.2-.082.395-.121.59,0,.008,0,.019-.008.027-.035.172-.074.34-.113.508q-.123.556-.258,1.078c-.043.18-.09.36-.141.535-.012.051-.027.1-.043.153-.047.172-.094.344-.144.511-.016.051-.032.106-.047.157-.055.179-.113.359-.168.535-.074.23-.152.449-.231.668-.031.1-.066.195-.105.289a.734.734,0,0,1-.027.074c-.059.16-.118.317-.184.469s-.113.277-.172.414-.125.289-.191.43c-.012.031-.028.058-.039.089-.735-.707-1.493-1.406-2.25-2.136-.161-.153-.321-.309-.485-.465-.551-.535-1.1-1.09-1.633-1.676-5.171-5.394-10.382-10.777-15.738-16.008-.383-.375-.765-.75-1.148-1.117q-1.905-1.851-3.836-3.668c-.27-.254-.539-.508-.809-.758q-1.857-1.74-3.75-3.445c-.316-.289-.633-.574-.953-.859-.23-.207-.461-.414-.7-.618-.375-.335-.75-.668-1.129-1s-.758-.664-1.141-.992c-.758-.664-1.523-1.316-2.293-1.965q-.574-.492-1.156-.972c-.387-.324-.773-.645-1.164-.961s-.781-.641-1.172-.957c.016-.012.031-.02.047-.031q.99-.616,1.984-1.227c2.715-1.672,5.45-3.316,8.141-5.027.488-.313.977-.625,1.461-.942q.762-.492,1.516-1a.113.113,0,0,1,.031-.019c.527-.356,1.054-.711,1.578-1.075.016-.011.031-.019.047-.031l.031-.023c.211-.145.422-.293.633-.442s.445-.308.664-.468c7.945-5,15.223-10.957,23.035-16.133a15.28,15.28,0,0,1,1.574-.957c.063.722.129,1.484.2,2.277.016.16.032.32.043.481s.028.324.043.488.028.328.043.492c.063.727.129,1.477.192,2.25q.041.5.082,1.02c.027.3.055.609.078.918.012.183.027.367.043.55.031.371.059.746.09,1.121.019.235.039.473.054.711s.04.477.055.719c.039.481.074.965.11,1.457.015.2.031.395.042.594.032.394.059.793.086,1.195s.059.805.086,1.211.055.816.082,1.227c.067,1.007.133,2.031.192,3.066.015.231.027.461.039.691.012.211.027.422.035.637s.023.426.035.637.024.426.035.641.024.425.035.64q.054.974.094,1.953c0,.035,0,.067,0,.1.027.609.055,1.219.078,1.828.012.219.02.434.028.652.019.434.035.868.046,1.3s.032.867.043,1.3q.03.849.047,1.7c.008.23.012.461.016.691.008.289.016.578.019.868.008.433.016.867.02,1.3C153.955,54.812,153.959,55.141,153.959,55.465Z" fill="#fff" fill-opacity="0"/>
  </g>
</svg>
