<svg xmlns="http://www.w3.org/2000/svg" width="166.707" height="153.371" viewBox="0 0 166.707 153.371">
  <g>
    <path d="M45.6,15.075c2.281,9.2-3.789,18.511-11.332,23.293-3.406,2.148-7.4,4.386-11.551,3.289-11.535-4.6-15.6-20.516-11.851-31.532a9.919,9.919,0,0,1,3.082-4.582C16.107,2.727,19.04-.042,22.786,0A30.894,30.894,0,0,1,38.275,4.868,20.137,20.137,0,0,1,45.6,15.075Z" fill="#3781bc"/>
    <path d="M166.411,139.922c.106,3.575.793,7.305-.382,10.774a1.263,1.263,0,0,1-1.688.7c-1.949.312-3.93.1-5.894.262-7.633,1.136-15.344.964-23.043.976-3.122-.074-6.161.953-9.27.692-7.754-.313-8.09-6.356-8.125-12.657-.1-7.343-.074-14.691.121-22.031,0-8.5.418-17.254-2.355-25.418-.539-1.246-.989-2.723-2.211-3.457-2.836-1.125-5.977-.808-8.918-.473C92,92.579,92.525,108.528,92.439,119.008c.062,7.938.324,15.891-.36,23.813-.4,2.277.235,6.179-2.734,6.746-3.922.144-7.871.144-11.8.144-4.879.012-9.613-.16-14.453-.246-2.688-.312-6.66.555-8.027-2.422-1.032-1.859-.657-4.117-.672-6.16.058-5,.23-10.015.011-15.023a310,310,0,0,1,.239-45.07c.277-8.372-1.5-16.7-.559-25.063.125-2.285-.375-4.809.664-6.918-3.48-5.379,5.524-6.1,8.985-6.2,3.582-.254,7.148-.633,10.722-.985,4.016-.4,8.035-1.394,12.086-1.015a2.394,2.394,0,0,1,1.879.445c3.8,2.649,3.324,7.688,3.117,11.758a40.588,40.588,0,0,1,17.45-5.4c9.046-.957,18.96-2.633,27.339,1.91a47.668,47.668,0,0,1,11.3,7.98c5.75,5.332,11.067,10.766,14.524,17.688,4.527,8.558,4.468,18.191,3.593,27.558-.2,7.246.461,14.473.59,21.715C166.38,129.489,166.005,134.7,166.411,139.922Z" fill="#3781bc"/>
    <path d="M42.064,53.024a2.7,2.7,0,0,1,.664,2.059,51.918,51.918,0,0,1-.645,7.277c-.144,1.043-.261,2.09-.363,3.137-.07.867-.113,1.707-.148,2.5a13.029,13.029,0,0,1-.215,2.493c-.188,3.519-.258,7.043-.4,10.562-.976,6.512-.605,12.945-.648,19.485.1,6.972-1.168,13.918-1.422,20.855-.051,6.133-1.215,12.152-1.633,18.246-.051,2.668.137,5.391-.535,8a2.085,2.085,0,0,1-.859,1.246c-1.446.738-3.157.25-4.7.266-3.711-.18-7.414.242-11.129.148A51.968,51.968,0,0,1,5.044,147.36a5.672,5.672,0,0,1-4.465-4.809c-.828-4.121-.437-8.379-.539-12.562-.105-7.43-.031-14.883.555-22.2,1.254-9.27-.055-18.512-.223-27.8C.345,75.668.9,71.383,1.22,67.083c.312-4.032.008-8.2,1.156-12.118A3.722,3.722,0,0,1,5.8,51.993c5.281-1.325,10.578-1.575,15.957-2.071a56.246,56.246,0,0,1,14.051-.293,7.2,7.2,0,0,1,3.359.7,3.531,3.531,0,0,1,.938.929,4.78,4.78,0,0,1,1.094,1.3A1.2,1.2,0,0,1,42.064,53.024Z" fill="#3781bc"/>
    <path d="M57.865,78.146C54.771,72.8,54.64,65.921,53.7,60.134c-.667-4.439-1.109-9.1.281-13.449a1.928,1.928,0,0,1,.84-1.149c1.24-.512,2.794-1.02,4.011-.363a.923.923,0,0,1,.371.84c-.083.432-1.028.288-1.357.432a3.356,3.356,0,0,0-1.691.772c.6,6.592,2.275,13.084,2.3,19.753.389,3.738.641,7.558-.574,11.179l0,0Z" fill="#3781bc"/>
    <path d="M39.6,55.853a4.136,4.136,0,0,1-.962-3.167c-1.683-.42-7.561.169-7.658-2.013.012-.422.688-.368.961-.375.477-.02.945-.075,1.418-.121,2.677-.17,6.019-1.664,7.941.965C43.484,53.135,43.5,59.874,39.6,55.853Z" fill="#3781bc"/>
  </g>
</svg>
