<svg xmlns="http://www.w3.org/2000/svg" width="175.529" height="144.691" viewBox="0 0 175.529 144.691">
  <g>
    <path d="M97.862,144.616c-8.9-.53-17.261-2.308-26.136-1.961a128.841,128.841,0,0,1-20.832-1.4,45.868,45.868,0,0,1-25.809-10.7c-8.367-7.334-13.946-18.3-13.809-29.527,1.008-8.979.826-18.64,5.536-26.648,6.973-13.377,19.527-21.563,32.269-28.723A37.8,37.8,0,0,1,67.1,40.609a200.221,200.221,0,0,1,28.374.062c13.03,1.111,26.594,2.893,37.539,10.667,5.568,4.072,11.483,7.91,16.172,13.016,3.394,3.908,6.954,8.075,9.093,12.8a52.292,52.292,0,0,1,4.305,16.07c.517,6.427-.258,12.8-3.453,18.242-2.268,3.928-4.945,8.815-7.821,12.024-4.165,4.612-7.74,10.2-13.843,12.453-5.459,2.038-10.458,5.319-16.3,6.272A90.03,90.03,0,0,1,97.862,144.616Zm-16.1-6.536a98.06,98.06,0,0,0,25.807-2.887c5.917-1.411,11.6-3.66,17.426-5.387,4.914-1.627,9.161-4.656,13.958-6.541a46.054,46.054,0,0,1,5.019-5.616c2.066-2.542,3.72-5.412,5.587-8.1a29.325,29.325,0,0,0,1.8-9.09,37.249,37.249,0,0,0-6.647-21.6c-4.686-7.308-10.2-14.415-17.361-19.434C119.9,55.159,111.19,53.2,102.9,51.065c-9.339-2.28-18.866-4.08-28.514-3.212-5.9.855-11.794,1.824-17.648,2.964a70.441,70.441,0,0,0-11.4,4.475C34.911,59.647,23.808,65.641,19.872,76.973c-1.475,4.633-.36,9.057-.517,13.7-.219,7,1.232,14.19,5.394,19.957,2.558,3.694,4.724,7.714,8.2,10.676A59.4,59.4,0,0,0,50.9,132.577c3.194,1.075,6.578,1.494,9.761,2.585A56.969,56.969,0,0,0,81.761,138.08Z" fill="#d6483f"/>
    <path d="M83.2,127.389c-6.893-.337-13.9-.593-20.289-3.491a50.391,50.391,0,0,1-9.672-7.4c-.661-1.787,1.082-3.631,2.5-4.508,1.984-1.359,3.975.568,5.668,1.508a47.49,47.49,0,0,0,26.5,6.547c4.23-.1,8.817-.067,12.707-1.813a25.609,25.609,0,0,0,7.117-4.613c1.609-1.206,3.278-3.08,5.531-2.733.848-.589,2.283-.493,2.1.776-.1,1.131-1.208,1.962-1.586,3.02-1.258,2.278-3.637,3.576-5.638,5.127C101.281,125.589,92.027,127.82,83.2,127.389Z" fill="#d6483f"/>
    <path d="M75.472,82.935c.082,1.219.746,2.812-.5,3.656a14.715,14.715,0,0,1-1.195,3.68c-.012.023-.024.05-.036.074A15.26,15.26,0,0,1,66.7,97.216a22.562,22.562,0,0,1-8.141.625C51.41,96.47,48.839,87.95,50.1,81.646a13.976,13.976,0,0,1,6.285-8.957c2.809-2.035,6.363-1.211,9.418-.25a14.737,14.737,0,0,1,5.738,2.355C74.324,76.466,75.191,79.986,75.472,82.935Z" fill="#d6483f"/>
    <path d="M125.753,85.622c1.391,8.782-9.4,14.012-16.851,12.942a12.182,12.182,0,0,1-8.563-7.09,22.308,22.308,0,0,1-.793-6.352c-.2-3.351.059-7.066,2.637-9.523,4.535-4.926,12.531-4.254,17.984-1.336,3.668,2.543,4.891,7.293,5.6,11.461C125.761,85.689,125.757,85.654,125.753,85.622Z" fill="#d6483f"/>
    <path d="M155.978,85.534c-1.591.052-1.8-1.818-1.207-2.934,1.776-4.652,7.335-3.977,11.179-5.593,4.516-1.462.305-12.344-1.792-14.984-5.708-7.005-15.174-1.688-21.457,1.636a1.291,1.291,0,0,1-1.571-.38c-.653-4.151,7.706-7.745,10.856-9.327,12.173-5.789,21.919.147,23.414,13.335C176.836,78.9,166.036,84.777,155.978,85.534Z" fill="#d6483f"/>
    <path d="M10.634,82.57C.156,80.836-.61,73.737.267,64.582c.38-6.592,5.159-12.87,11.789-14.129,6.751-1,13.872,2.11,18.434,7.047,2.805,3.058-2.231,7.378-5.118,4.625-4.639-3.216-10.6-5.748-16.289-4.27-.338,3.894-.58,8.016.427,11.824a9.025,9.025,0,0,0,6.031,4.809C21.252,75.848,14.292,84.147,10.634,82.57Z" fill="#d6483f"/>
    <path d="M84.758,46.637c-1.528-1.357.46-5.682.777-7.5C86.647,35.5,87.7,31.829,88.8,28.188c.611-1.9,1.493-3.719,2-5.657a76.061,76.061,0,0,1,1.138-7.671c.452-2.943.853-6.136,3.007-8.391,1.918-2.168,4.278-3.976,7.262-4.109,5.2.293,10.05,2.725,15.249,3.189,3.763.457,8.555.556,12.091.846,1.427.186,3.377.028,3.832,1.778.421,2.735-1.813,5.218-3.912,6.669a6.241,6.241,0,0,1-4.451,1.116c-2.6-.022-5.206.1-7.805-.063A67.161,67.161,0,0,1,102.6,14.4c-.056,4.6-2.009,8.76-3.751,12.906-1.356,3.532-2.7,7.055-4.207,10.524-1.473,3.4-3.1,7.266-6.719,8.879A2.966,2.966,0,0,1,84.758,46.637Z" fill="#d6483f"/>
    <path d="M138.587,30.621c-4.356-1.356-8.809-4.351-9.942-9.008a45.366,45.366,0,0,1-.277-8.219c.663-13.277,21.71-17.373,30.078-9.159,3.573,4.042,3.889,10.754,1.809,15.5C156.184,27.652,147.172,32.905,138.587,30.621Zm10.6-7.407c1.931-.017,3.413-1.414,4.534-2.834,1.642-2.284-1.465-5.518-3.121-7.022a16.336,16.336,0,0,0-11.464-1.914,5.919,5.919,0,0,1-.67,1.724,10.21,10.21,0,0,1-1.265,1.751C139.177,20.214,143.282,23.875,149.187,23.214Z" fill="#d6483f"/>
  </g>
</svg>
